<?xml version="1.0" encoding="utf-8"?>
<!-- Generator: Adobe Illustrator 18.0.0, SVG Export Plug-In . SVG Version: 6.00 Build 0)  -->
<!DOCTYPE svg PUBLIC "-//W3C//DTD SVG 1.1//EN" "http://www.w3.org/Graphics/SVG/1.1/DTD/svg11.dtd">
<svg version="1.1" id="final_logo_xA0_Image_1_" xmlns="http://www.w3.org/2000/svg" xmlns:xlink="http://www.w3.org/1999/xlink"
	 x="0px" y="0px" viewBox="0 0 277.4 180.4" enable-background="new 0 0 277.4 180.4" xml:space="preserve">
<path id="test" fill="#090909" d="M70.5,120c-1.1,0.9-2.1,1.7-3.2,2.4c-4.7,3.1-9.8,3.9-15.3,3.6c-3.4-0.2-6.6-1.3-9.2-3.7
	c-0.5-0.5-1-1.1-1.4-1.7c-0.2-0.2-0.3-0.5-0.7-0.4c-2.8,1.1-5.5,0.2-8.2-0.5c-3.2-0.7-5.5-2.7-7.5-5.2c-1.7-2.1-2.1-4.5-2.3-7
	c-0.3-3,0-5.9,0.9-8.8c0.4-1.3,1.3-2.4,2-3.5c2.1-3.4,5.2-5.7,8.6-7.6c1.6-0.9,3.4-1.2,5.1-1.6c1.9-0.5,2.1-0.5,2-2.4
	c0-3.1,0.4-6.1,0.4-9.2c0-3.8,0.1-7.6,0.2-11.4c0.1-2.3,0.6-4.5,2.3-6.3c0.9-0.9,2-1.7,3.3-2.2c3.6-1.2,7.1-0.6,10.7,0.3
	c2.3,0.6,4.4,1.6,6.3,3c0.2,0.2,0.4,0.5,0.7,0.3c0.2-0.1,0.1-0.4,0.1-0.7c0.2-3.8,0.4-7.7,0.8-11.5c0.3-3,0.6-6,1.7-8.8
	c1.2-3,3.2-5.3,6.5-6.3c3.7-1.2,7.2-0.5,10.5,1c4,1.8,6.7,5,8.8,8.8c0.4,0.8,0.8,1.5,1,2.4c0.1,0.6,0.5,0.4,0.8,0.3
	c1.3-0.3,2.6-0.6,3.9-0.6c0.6,0,1.3,0.6,1.6,0.1c0.3-0.4,0-1.1,0.1-1.7c0.3-2.9,0.7-5.9,1.6-8.7c0.9-2.8,2.6-5.1,5.3-6.2
	c2.7-1.1,5.5-1.5,8.5-0.7c5.1,1.3,8.8,4.3,11.5,8.8c0.2,0.3,0.3,0.6,0.6,0.8c0.5-0.5,0.8-1.1,1.3-1.5c2-1.7,4.4-2,6.8-2.3
	c3-0.4,5.9,0.3,8.6,1.4c2.1,0.8,3.8,2.3,5.3,4c1.8,2,2.5,4.4,2.9,6.9c0.1,0.6,0.4,0.9,0.9,0.9c1.3,0.2,2.5,0.7,3.5,1.6
	c1.2,1,2.1,2.1,2.5,3.6c0.6,2.2,1,4.4,0.3,6.7c-0.2,0.6,0.1,0.5,0.6,0.5c3.1-0.5,6.2-0.5,9.3-0.3c1.4,0.1,2.8,0.6,4,1.2
	c0.4,0.2,0.8,0.3,1.3,0c1.3-0.7,2.7-0.9,4-1.2c0.5-0.1,0.6-0.3,0.6-0.8c0.3-5.4,0.3-10.9,0.4-16.3c0.1-3.4,1.4-6.5,4.6-8
	c2-0.9,4.2-1.4,6.5-0.9c2.1,0.4,4.2,0.8,6.2,1.6c0.4,0.1,0.7,0.3,1.1,0.5c2.7,1.6,5.2,3.5,6.6,6.4c0.9,1.9,1.3,3.9,1.6,6
	c0.3,2.3-0.2,4.4-0.5,6.7c-0.2,2.6-0.8,5.1-1,7.6c0,0.4-0.5,0.9-0.1,1.2c0.3,0.3,0.8,0.3,1.3,0.4c2.3,0.2,4.1,1.4,5.7,2.9
	c1,0.9,1.7,2,2.2,3.4c0.8,2.4,0.7,4.8-0.2,7.1c-1,2.4-2.1,4.8-3.6,7c-0.3,0.5-0.4,0.8,0,1.2c0.4,0.5,0.7,1.5,1.1,1.6
	c0.6,0.1,0.9-0.9,1.4-1.4c2.5-2.3,5.1-4.2,8.4-5.4c1.5-0.5,3-0.8,4.5-1.3c0.6-0.2,1.2,0,1.9,0.1c1.7,0.4,3.4,0.7,4.7,1.9
	c1.3,1.1,2.3,2.4,2.7,4.1c0.4,1.8,0.7,3.5,0.1,5.3c-0.3,0.9,0,1.2,1,1.1c4.9-0.3,9.5,1.2,13.9,3.1c1.4,0.6,2.7,1.3,3.9,2.1
	c1.2,0.8,2.1,1.8,2.7,3c0.6,1.2,0.7,2.6,1,3.9c0.5,2.2-0.1,4.3-0.9,6.3c-0.8,2.1-2.5,3.7-4.9,4.2c-0.8,0.2-1.6,0.4-2.4,0.6
	c0.3,0.7,0.6,1.5,0.9,2.2c0.9,2.6,1.5,5.2,1.8,7.9c0.2,2-0.4,3.8-1,5.6c-1.7,4.6-5.1,7.6-9.5,9.6c-2.1,0.9-4.3,1.4-6.5,1.9
	c-2.5,0.5-4.9,0.1-7.3-0.4c-4.2-0.8-7.6-3-10.6-5.8c-1.3-1.2-2.2-2.7-3.1-4.2c-0.3-0.5-0.5-0.5-0.9-0.2c-3.1,2.4-6.8,3.2-10.6,4
	c-2.8,0.6-5.2-0.2-7.7-0.9c-1.9-0.6-3.3-1.9-4.6-3.5c-2.2-2.7-2.8-5.9-3.1-9.3c0-0.4,0.1-0.8-0.5-0.9c-0.3-0.1-0.5-0.1-0.7,0.3
	c-1.2,3.2-3.3,5.7-6.1,7.6c-1.7,1.2-3.8,1.4-5.7,2.1c-2,0.6-3.9,1.5-5.9,2.1c-1.2,0.4-2.5,0.4-3.8,0c-1.2-0.5-2.5-0.7-3.6-1.3
	c-0.2-0.1-0.4,0.1-0.6,0.1c-1.9,0.9-4,1.5-6,1.9c-3.2,0.7-6.4,0.5-9.5-0.4c-2.2-0.7-4.1-2-5.6-3.7c-1.1-1.3-2.2-2.6-2.7-4.3
	c-0.1-0.3-0.3-0.4-0.6-0.4c-1.6,0.5-3.1-0.1-4.6-0.3c-0.6-0.1-0.8,0-1.1,0.5c-2.9,4.9-8,7.3-13.7,6.5c-0.8-0.1-1.4,0.3-2.2,0.5
	c-2.6,0.6-5.3,1.4-8,1.3c-0.7,0-1.4-0.1-2.1-0.2c-0.5-0.1-0.7,0-0.9,0.4c-2.7,3.8-6.1,6.8-10.3,9c-1.6,0.8-3.3,1.1-5,1.4
	c-3.2,0.5-6.3,0.2-9.3-0.9c-1.7-0.6-3.1-2-4.4-3.4c-2.6-2.9-3.4-6.4-4.1-10C70.4,124.5,70.6,122.3,70.5,120z M77.9,103.7
	c-0.1,0.2-0.1,0.3-0.1,0.5c-0.1,2.5-0.8,4.9-1,7.3c-0.2,2.1-0.8,4.2-0.8,6.3c-0.1,4.1-0.5,8.2,1,12.2c1,2.6,2.6,4.5,5.1,5.5
	c2,0.8,4.2,0.6,6.3,0.2c2.8-0.6,5.2-2.1,7.3-4.1c2.2-2.1,4-4.5,5.6-7.1c0.3-0.4,0.5-0.6,1-0.4c1.6,0.7,3.3,1,5.1,1
	c2.2-0.1,4.3-0.5,6.4-1.3c2.9-1.1,5.5-2.7,7.9-4.5c2-1.5,3.8-3.2,5.6-5c0.2-0.2,0.3-0.4,0.7-0.1c1.8,1.9,4.2,2.3,6.7,2.5
	c2,0.1,3.9-0.3,5.7-1c0.7-0.3,0.8,0,0.9,0.5c0.2,1.9,0.6,3.8,1.6,5.5c1.1,1.9,2.7,3.4,4.8,3.9c4.4,1.1,8.4,0,12.2-2.2
	c2-1.2,3.7-2.8,5.3-4.5c0.2,0.2,0.3,0.4,0.4,0.6c1.2,1.8,2.8,3.1,5.1,3.3c1.3,0.2,2.5,0.1,3.7,0c3.4-0.2,6.7-3.8,7.5-6.8
	c0.6-2.2,1.1-4.5,1.6-6.8c0.3,0.1,0.3,0.3,0.4,0.5c0.7,1.3,1.5,2.4,3,2.7c3.3,0.8,5.5-1,6.2-3.9c0.6-2.5,0.8-5.1,1.7-7.6
	c0.4-1.1,0.7-2.3,1.6-3.4c0,0.5,0,0.8-0.1,1.1c-0.5,2.1-0.6,4.3-1,6.4c-0.5,2.7-0.9,5.5-1.2,8.2c-0.4,3.2-0.6,6.4,0.5,9.5
	c0.7,2.1,2.1,3.7,4.4,4.3c1.5,0.4,2.9,0.3,4.4,0.2c2.9-0.3,5.5-1.4,7.8-3c2-1.4,3.8-3,5.4-4.9c0.4-0.5,0.9-0.9,1.4-1.3
	c0.1,1,0.3,1.9,0.4,2.8c0.5,4.2,2.5,7.4,5.7,10c1.4,1.2,3.1,2,4.9,2.6c2,0.6,4.1,1,6.3,0.6c3.4-0.6,6.6-1.6,9.2-4
	c3.1-2.8,3.6-6.3,3-10c-0.3-2.2-1.3-4.2-2.5-6.1c-1.5-2.6-3.1-5.2-4.8-7.6c-0.7-1-1.3-1.9-2-3c1.3-0.1,2.4,0,3.5,0.3
	c2.2,0.5,4.3,1.2,6.3,2.3c2.1,1.1,4.6,0.3,5.1-2.4c0.2-1,0-2-0.2-3c-0.2-0.9-0.7-1.5-1.4-1.8c-1.9-0.9-3.7-1.9-5.6-2.6
	c-4.1-1.5-8.2-1.9-12.4-0.8c-0.3,0.1-0.4,0.1-0.6-0.2c-1.7-3-3.1-6-1.9-9.7c0.6-1.7-1.4-3.6-3.2-3.3c-3.8,0.6-7.1,2.2-9.8,4.9
	c-2.9,3-3.6,6.6-2.9,10.5c0.4,2,1.1,4,2.2,5.8c0.3,0.5,0.2,0.9-0.1,1.4c-1.3,1.7-2.7,3.3-4.2,4.9c-0.8,0.9-1.8,1.6-2.7,2.5
	c-0.3-1.7,0.3-3.1,0.4-4.7c0.2-3.1,0.9-6.3,0.5-9.4c-0.3-2.6-1.3-4.9-3.4-6.6c-3.3-2.6-7.2-3.1-11.3-2.6c-2.5,0.3-4.6,1.6-6.3,3.5
	c-0.4,0.5-0.7,0.6-1.2,0c-1.7-2.1-4-2.8-6.6-2c-0.6,0.2-0.8,0-1.1-0.5c-0.7-1.5-1.8-2.6-3.1-3.6c-1.9-1.5-4.2-1.8-6.6-2.3
	c0.7-0.7,1.5-1.3,2.2-2c0.5-0.6,1-0.6,1.7-0.4c1.1,0.3,2.2,0.7,3.3,0.5c1.4-0.2,2.9-0.5,4.2-1.1c0.6,2.2,1.9,3.9,4,4.8
	c2.1,1,4.5,0.9,6.7,0.6c4.5-0.5,7.9-3.1,10.8-6.5c1.9-2.2,3-4.8,4.1-7.4c0.4-0.8,0.7-1.6,0.5-2.6c-0.4-2.1-2-2.9-3.7-3.5
	c-1.9-0.6-3.5,0.5-4.1,2.1c-0.6,1.5-1.7,2.7-2.9,3.9c-0.1-1,0.2-1.8,0-2.6c-0.2-1.3,0.2-2.5,0.3-3.8c0.2-1.8,0.2-3.7,0.6-5.5
	c0.3-1.4,0.4-2.8,0.6-4.1c0.3-1.9,0.4-3.8,0.7-5.7c0.3-1.9,0.4-3.8,0.2-5.8c-0.4-4.1-4.1-7-7.4-7.9c-1.2-0.3-2.5-0.4-3.7-0.6
	c-2.4-0.5-4.6,1.1-4.6,3.5c0,5.6,0,11.3-0.4,16.9c-0.1,1.3,0,2.6-0.4,3.9c-0.1,0.6-0.4,0.8-1,0.8c-2.9,0.1-5.7,0.8-8.1,2.5
	c-1.2,0.8-2.3,1.8-3.2,3c-1.8-3.8-5-5.1-8.8-4.9c-2,0.1-4,0.5-5.9,1.4c-1.7,0.8-3.3,1.7-4.5,3c-2.1,2.1-3.4,4.7-3.9,7.7
	c-0.3,1.6-0.8,3-2.1,4.2c-0.1-1.4-0.1-2.8-0.2-4.1c-0.2-4.7,0.1-9.4,0.1-14.1c0-0.2,0.1-0.5,0.1-0.7c0-0.4,0.2-0.6,0.6-0.6
	c1.1-0.2,2.2-0.4,3.3-0.5c2.4-0.3,3.2-1,3.8-3.4c0.2-0.6-0.1-1.2-0.1-1.8c-0.1-1.8-1.2-3-2.7-3.2c-1.2-0.2-2.3-0.2-3.5,0
	c-0.7,0.1-1.1,0.1-1-0.8c0-0.2,0-0.5,0-0.7c0.4-1.5,0.2-2.9-0.1-4.4c-0.7-3.7-3.3-5.7-6.7-6.7c-1.8-0.5-3.6-0.4-5.4-0.2
	c-2.8,0.2-3.8,2.1-3.3,4.7c0.1,0.6,0.3,1.3,0.2,2c-0.2,1.9-0.5,3.7-0.4,5.6c0,0.4,0,0.8,0,1.2c0,0.4-0.1,0.6-0.6,0.7
	c-1.7,0.1-3.4,0.4-5,0.7c-0.5,0.1-0.7,0-0.6-0.5c0-1,0.4-1.9,0.4-2.8c0-1.1-0.3-2.1-0.4-3.1c-0.3-1.9-0.5-3.8-1.3-5.6
	c-1.5-3.4-3.7-6.3-7.1-8c-1.7-0.9-3.5-1.3-5.4-1c-0.6,0.1-1.2,0.2-1.8,0.6c-1.2,1-2.2,2.2-2.6,3.7c-0.7,2.6-1,5.2-1.1,7.9
	c-0.1,1.9-0.2,3.8-0.3,5.6c-0.1,1.4,0.1,2.9-0.4,4.4c-1.5-3.1-4-4.9-7.4-4.7c-3.4,0.2-5.7,2.2-7,5.4c-0.2-3-0.5-5.9-1.6-8.8
	c-1.7-4.4-4.6-7.5-9.2-8.9c-3.4-1-6.3,0.6-7.5,3.9c-0.7,1.9-0.7,3.9-1,5.9c-0.4,2.9-0.5,5.8-0.7,8.7c-0.3,3-0.3,6-0.3,9
	c-0.1,3.2,0,6.3,0.1,9.5c0.1,3.7,0.4,7.3,1.5,10.8c0.1,0.5,0.1,0.7-0.5,0.8c-1,0.1-2,0.7-3,0.9c-1.9,0.4-2.5,1.9-2.5,3.5
	c0,2,0,4,0,5.9c0,1,0.2,2,0.5,3c0.1,0.2,0.3,0.4,0.1,0.8c-1.3,2.5-3,4.7-5.2,6.4c-0.3-0.4-0.2-0.8-0.3-1.2
	c-0.2-3.4,0.3-6.7,0.5-10.1c0.1-1.4,0.3-2.8,0.5-4.2c0.3-2.1,0.7-4.3,1-6.4c0.3-2.6,0.7-5.2,0.9-7.8c0.2-2.1,0.6-4,0.2-6.2
	c-0.6-3.9-2.8-6.5-6.1-8.3c-2.7-1.3-5.5-1.9-8.5-1.8c-1.8,0.1-3.1,1.1-3.3,2.7c-0.2,0.9,0,1.8,0,2.8c0.1,1.4-0.1,2.7-0.1,4.1
	c-0.2,3.6-0.1,7.2-0.3,10.8c-0.2,3.4-0.5,6.9-0.6,10.4c0,0.7-0.2,1-1,1c-3-0.1-6,0.3-8.7,1.7c-4.9,2.6-8.4,6.2-8.8,12.1
	c-0.1,1.7-0.1,3.4,0.6,4.9c1.7,3.5,4.7,5,8.4,5.2c2.6,0.2,5-0.6,7.2-1.9c0.1,0.5,0.1,0.9,0.3,1.4c1,2.9,2.7,5.1,5.8,5.8
	c2.1,0.5,4.1,0.4,6.2,0.2c3.2-0.3,6.1-1.5,8.7-3.3c1.4-1,2.5-2.3,3.8-3.4c1.2-1.1,2.1-2.4,3-3.8c1.2-2,2.1-4.1,3.1-6.2
	c0.2-0.4,0.3-0.6,0.7-0.4C76.1,103.6,77,103.7,77.9,103.7z"/>
<path fill="#171615" d="M133.7,141.2c-0.4,1.1-0.8,2.2-1.2,3.4c-0.2,0.6-0.5,0.5-0.9,0.4c-0.4-0.2-0.7-0.2-0.5-0.8
	c0.8-2.2,1.6-4.5,2.4-6.7c0.1-0.4,0.3-0.5,0.7-0.4c1.6,0.6,1.4,0.3,1.2,1.8c-0.2,1.3-0.3,2.5-0.3,3.9c0.6-1.3,1.3-2.6,1.9-4
	c0.1-0.2,0.1-0.7,0.5-0.6c0.5,0.1,1.1,0.2,1.5,0.5c0.1,0.1,0,0.4,0,0.6c-0.6,2.3-1.2,4.5-1.8,6.8c-0.1,0.6-0.4,0.6-0.9,0.5
	c-0.4-0.1-0.8-0.2-0.6-0.9c0.4-1.1,0.7-2.3,0.8-3.6c-0.6,1.1-1.1,2.3-1.7,3.4c-0.2,0.4-0.4,0.5-0.8,0.3c-0.4-0.2-0.9-0.1-0.8-0.8
	c0.2-1.2,0.3-2.4,0.5-3.7c0.1-0.2,0.1-0.4,0-0.6C133.7,140.9,133.7,141.1,133.7,141.2z"/>
<path fill="#191818" d="M169.5,148.1c-0.5,0.2-0.5-0.1-0.6-0.5c-0.4-2.3-0.7-4.6-1.1-6.9c-0.1-0.6,0.1-0.8,0.6-0.9
	c0.6-0.1,0.6,0.2,0.7,0.6c0.1,0.8,0.4,1.6,0.4,2.4c0.1,0.7,0.5,0.4,0.8,0.4c0.3,0,0.8,0,0.7-0.6c-0.2-0.8-0.3-1.6-0.5-2.5
	c-0.2-0.6,0.2-0.7,0.6-0.8c0.5-0.1,0.6,0.1,0.7,0.5c0.5,2.3,1,4.6,1.5,6.9c0.1,0.6-0.2,0.7-0.6,0.8c-0.5,0.1-0.8,0.1-0.8-0.5
	c0-0.6-0.2-1.2-0.3-1.8c-0.1-0.7-0.3-1.1-1.1-0.8c-0.5,0.2-0.6,0.3-0.5,0.8c0.1,0.6,0.2,1.3,0.4,1.9
	C170.5,148.1,170.1,148.2,169.5,148.1z"/>
<path fill="#191818" d="M149.7,143.5c0.4-0.6,0.9-1.2,1.2-1.9c0.4-0.9,1-1.1,2-0.8c-0.6,0.9-1.1,1.9-1.8,2.8
	c-0.3,0.5-0.4,0.9-0.2,1.4c0.5,1.3,0.9,2.6,1.4,3.9c-1.5,0.2-1.5,0.2-1.9-1.1c-0.2-0.7-0.5-1.4-0.7-2.2c-0.7,0.6-0.6,1.4-0.6,2.2
	c0,0.8-0.3,1-1,0.8c-0.5-0.1-0.5-0.2-0.5-0.7c0.3-2.3,0.5-4.6,0.8-6.9c0.1-0.5,0.1-0.9,0.8-0.7c0.7,0.1,0.6,0.4,0.6,0.9
	c-0.1,0.7-0.2,1.4-0.2,2.1C149.6,143.5,149.6,143.5,149.7,143.5z M149.5,143.7C149.5,143.7,149.4,143.7,149.5,143.7
	C149.5,143.8,149.5,143.8,149.5,143.7C149.5,143.7,149.5,143.7,149.5,143.7C149.5,143.7,149.5,143.7,149.5,143.7z"/>
<path fill="#171615" d="M177.6,146.2c-0.9,0-1.4-0.5-1.7-1.3c-0.4-1.4-0.8-2.8-1.1-4.2c-0.3-1.4,0.2-2.2,1.5-2.5
	c1.3-0.4,2.2,0.1,2.6,1.5c0.4,1.2,0.8,2.3,1.1,3.5C180.6,145,179.7,146.2,177.6,146.2z M178.8,144c-0.4-1.3-0.9-2.9-1.4-4.4
	c-0.1-0.4-0.5-0.3-0.9-0.2c-0.4,0.1-0.6,0.4-0.5,0.7c0.4,1.5,0.8,3,1.3,4.5c0.1,0.5,0.5,0.5,0.9,0.4
	C178.6,144.8,178.8,144.6,178.8,144z"/>
<path fill="#191818" d="M145.4,142.1c-0.2,1.2-0.4,2.8-0.7,4.4c-0.2,1-1.1,1.5-2.2,1.4c-1.4-0.2-2.2-0.8-2.1-2
	c0.2-1.8,0.6-3.5,1.1-5.2c0.3-1,1.3-1.3,2.5-1C145,139.9,145.5,140.6,145.4,142.1z M141.8,145.7c-0.1,0.6,0.2,0.8,0.7,0.9
	c0.5,0.1,0.8-0.2,0.9-0.7c0.3-1.4,0.5-2.8,0.8-4.2c0.1-0.5-0.1-0.7-0.6-0.8c-0.4-0.1-0.8,0-0.9,0.5
	C142.4,142.8,142.1,144.3,141.8,145.7z"/>
<path fill="#1D1C1C" d="M129.5,137.2c0.1-0.4-0.1-0.6-0.6-0.8c-0.5-0.2-0.7,0.2-0.9,0.5c-0.2,0.5,0,0.9,0.2,1.4
	c0.3,0.6,0.6,1.2,0.9,1.9c0.4,1.1-0.1,2.4-1,2.8c-0.8,0.4-2.2,0-2.9-0.8c-0.6-0.7-0.4-1.4-0.1-2.2c0.1-0.3,0.4-0.4,0.6-0.2
	c0.2,0.2,0.9,0.1,0.7,0.7c-0.1,0.2-0.1,0.3-0.2,0.5c0,0.4,0.2,0.7,0.6,0.8c0.4,0.1,0.6,0,0.8-0.4c0.2-0.4,0.2-0.8,0-1.2
	c-0.3-0.6-0.5-1.1-0.8-1.7c-0.5-1.1-0.3-2.1,0.5-2.9c0.7-0.7,1.5-0.8,2.5-0.2c0.8,0.5,1.2,1.2,0.9,2.1c-0.1,0.3,0,0.8-0.5,0.6
	C129.8,137.9,129.2,138,129.5,137.2z"/>
<path fill="#1D1C1C" d="M155.2,145.1c0-1.2,0-2.3,0-3.5c0-0.5,0.1-0.7,0.6-0.7c0.8,0,1.7,0,2.5,0c0.5,0,0.6,0.2,0.6,0.6
	c0,0.5-0.1,0.7-0.6,0.6c-0.1,0-0.2,0-0.3,0c-1.6,0.1-1.6,0.1-1.6,1.7c0,0.5,0.2,0.6,0.6,0.6c0.3,0,0.5,0,0.8,0
	c0.6-0.1,0.5,0.3,0.5,0.7c0,0.4-0.1,0.6-0.5,0.6c-1.4,0.1-1.4,0.1-1.5,1.5c0,0.8,0.2,0.9,0.9,0.8c0.3,0,0.7,0,1,0
	c0.5,0,0.8,0,0.8,0.6c0,0.7-0.3,0.6-0.8,0.6c-0.9,0-1.8,0-2.7,0c-0.5,0-0.7-0.1-0.7-0.7c0-1.2,0-2.3,0-3.5
	C155.1,145.1,155.1,145.1,155.2,145.1z"/>
<path fill="#191818" d="M183.4,135.7c1.1,0,1.6,0.7,1.9,1.5c0.4,0.9,1.1,1.9,0.2,2.9c-0.2,0.2-0.4,0.5-0.7,0.5
	c-1,0.2-0.8,0.8-0.5,1.4c0.2,0.3,0.2,0.7,0.4,1.1c0.4,0.6,0.1,0.8-0.5,1.1c-0.5,0.2-0.7,0.1-0.9-0.4c-0.8-2.2-1.6-4.4-2.4-6.5
	c-0.2-0.5-0.1-0.8,0.4-0.9C182.1,136.1,182.8,135.7,183.4,135.7z M183.1,137c-0.3,0.1-0.8,0.1-0.4,0.9c0.2,0.4,0.3,1,0.6,1.4
	c0.1,0.2,0,0.8,0.6,0.5c0.4-0.2,0.8-0.4,0.6-0.9c-0.2-0.5-0.4-1-0.6-1.6C183.8,137.1,183.6,136.9,183.1,137z"/>
<path fill="#191818" d="M163.6,148.9c-1.3,0-1.9-0.6-2-1.9c0-0.5,0.2-0.6,0.6-0.6c0.3,0,0.8-0.3,0.8,0.4c0,0.5,0.2,0.8,0.7,0.9
	c0.3,0.1,0.6,0,0.7-0.3c0.2-0.4,0.1-0.9-0.2-1.3c-0.4-0.6-1.1-0.9-1.6-1.3c-1.1-0.9-1.4-1.7-1-3c0.3-0.9,1-1.4,2.1-1.3
	c0.9,0.1,1.5,0.7,1.7,1.6c0,0.3,0,0.6-0.4,0.6c-0.3,0-0.8,0.4-0.8-0.3c-0.1-0.6-0.4-0.8-0.9-0.6c-0.6,0.2-0.6,0.7-0.4,1.2
	c0.2,0.5,0.6,0.8,1,1.1c0.5,0.4,1.1,0.7,1.5,1.2c0.6,0.8,0.8,1.6,0.4,2.5C165.2,148.7,164.4,148.9,163.6,148.9z"/>
<path fill="#F8FAF8" d="M77.9,103.7c-0.9,0-1.8-0.1-2.7-0.4c-0.4-0.1-0.5,0.1-0.7,0.4c-0.9,2.1-1.9,4.2-3.1,6.2
	c-0.8,1.4-1.7,2.7-3,3.8c-1.3,1.1-2.4,2.4-3.8,3.4c-2.6,1.8-5.4,3-8.7,3.3c-2.1,0.2-4.2,0.2-6.2-0.2c-3.1-0.7-4.9-2.9-5.8-5.8
	c-0.1-0.4-0.2-0.9-0.3-1.4c-2.2,1.3-4.6,2.1-7.2,1.9c-3.7-0.2-6.7-1.8-8.4-5.2c-0.8-1.5-0.7-3.3-0.6-4.9c0.4-5.8,3.8-9.5,8.8-12.1
	c2.7-1.4,5.7-1.8,8.7-1.7c0.8,0,1-0.3,1-1c0.2-3.5,0.4-6.9,0.6-10.4c0.2-3.6,0.1-7.2,0.3-10.8c0.1-1.4,0.2-2.7,0.1-4.1
	c0-0.9-0.2-1.8,0-2.8c0.3-1.6,1.6-2.6,3.3-2.7c3-0.1,5.8,0.4,8.5,1.8c3.4,1.7,5.5,4.3,6.1,8.3c0.3,2.2,0,4.1-0.2,6.2
	c-0.3,2.6-0.6,5.2-0.9,7.8c-0.3,2.2-0.7,4.3-1,6.4c-0.2,1.4-0.3,2.8-0.5,4.2c-0.3,3.4-0.7,6.7-0.5,10.1c0,0.4-0.1,0.8,0.3,1.2
	c2.2-1.7,3.9-3.9,5.2-6.4c0.2-0.3,0-0.5-0.1-0.8c-0.4-1-0.5-1.9-0.5-3c0-2,0-4,0-5.9c0-1.5,0.6-3.1,2.5-3.5c1-0.2,1.9-0.7,3-0.9
	c0.5-0.1,0.6-0.3,0.5-0.8c-1-3.5-1.3-7.1-1.5-10.8c-0.1-3.2-0.2-6.4-0.1-9.5c0.1-3,0.1-6,0.3-9c0.3-2.9,0.4-5.8,0.7-8.7
	c0.3-2,0.3-4,1-5.9c1.2-3.3,4.1-4.9,7.5-3.9c4.6,1.4,7.5,4.4,9.2,8.9c1.1,2.8,1.4,5.8,1.6,8.8c1.3-3.2,3.5-5.3,7-5.4
	c3.4-0.2,5.9,1.6,7.4,4.7c0.5-1.5,0.3-2.9,0.4-4.4c0.1-1.9,0.2-3.8,0.3-5.6c0.1-2.6,0.4-5.3,1.1-7.9c0.4-1.5,1.3-2.7,2.6-3.7
	c0.5-0.4,1.2-0.5,1.8-0.6c1.9-0.3,3.7,0.2,5.4,1c3.4,1.7,5.6,4.6,7.1,8c0.8,1.8,1,3.7,1.3,5.6c0.1,1,0.4,2,0.4,3.1
	c0,1-0.4,1.9-0.4,2.8c0,0.6,0.2,0.6,0.6,0.5c1.7-0.3,3.3-0.6,5-0.7c0.5,0,0.6-0.2,0.6-0.7c0-0.4,0-0.8,0-1.2
	c-0.1-1.9,0.2-3.8,0.4-5.6c0.1-0.7-0.1-1.3-0.2-2c-0.5-2.6,0.4-4.4,3.3-4.7c1.8-0.1,3.7-0.3,5.4,0.2c3.4,1,6,3,6.7,6.7
	c0.3,1.4,0.5,2.9,0.1,4.4c-0.1,0.2,0,0.5,0,0.7c-0.1,0.9,0.3,0.9,1,0.8c1.2-0.2,2.3-0.2,3.5,0c1.5,0.2,2.6,1.4,2.7,3.2
	c0,0.6,0.3,1.1,0.1,1.8c-0.6,2.4-1.3,3.1-3.8,3.4c-1.1,0.2-2.2,0.4-3.3,0.5c-0.4,0.1-0.6,0.2-0.6,0.6c0,0.2-0.1,0.5-0.1,0.7
	c-0.1,4.7-0.3,9.4-0.1,14.1c0.1,1.3,0.1,2.7,0.2,4.1c1.3-1.2,1.8-2.6,2.1-4.2c0.5-3,1.8-5.6,3.9-7.7c1.3-1.3,2.9-2.2,4.5-3
	c1.9-0.9,3.8-1.3,5.9-1.4c3.8-0.1,7,1.1,8.8,4.9c0.9-1.2,2-2.2,3.2-3c2.4-1.7,5.2-2.3,8.1-2.5c0.6,0,0.9-0.2,1-0.8
	c0.3-1.3,0.2-2.6,0.4-3.9c0.4-5.6,0.4-11.2,0.4-16.9c0-2.5,2.2-4.1,4.6-3.5c1.2,0.3,2.5,0.3,3.7,0.6c3.3,0.9,7,3.8,7.4,7.9
	c0.2,2,0.1,3.9-0.2,5.8c-0.3,1.9-0.5,3.8-0.7,5.7c-0.2,1.4-0.4,2.8-0.6,4.1c-0.3,1.8-0.4,3.7-0.6,5.5c-0.1,1.3-0.5,2.5-0.3,3.8
	c0.1,0.8-0.2,1.6,0,2.6c1.2-1.3,2.3-2.4,2.9-3.9c0.6-1.6,2.2-2.7,4.1-2.1c1.7,0.6,3.3,1.4,3.7,3.5c0.2,0.9-0.2,1.8-0.5,2.6
	c-1.1,2.6-2.2,5.2-4.1,7.4c-2.9,3.4-6.3,5.9-10.8,6.5c-2.2,0.3-4.6,0.4-6.7-0.6c-2-1-3.4-2.6-4-4.8c-1.4,0.6-2.8,0.9-4.2,1.1
	c-1.1,0.2-2.3-0.2-3.3-0.5c-0.7-0.2-1.2-0.2-1.7,0.4c-0.6,0.7-1.4,1.3-2.2,2c2.3,0.5,4.6,0.9,6.6,2.3c1.3,1,2.4,2.1,3.1,3.6
	c0.2,0.5,0.5,0.7,1.1,0.5c2.6-0.8,4.8-0.2,6.6,2c0.5,0.6,0.8,0.4,1.2,0c1.7-1.9,3.7-3.2,6.3-3.5c4.1-0.5,8-0.1,11.3,2.6
	c2.1,1.6,3.1,4,3.4,6.6c0.4,3.2-0.2,6.3-0.5,9.4c-0.1,1.5-0.6,3-0.4,4.7c0.9-0.9,1.9-1.6,2.7-2.5c1.5-1.6,2.9-3.2,4.2-4.9
	c0.4-0.5,0.5-0.9,0.1-1.4c-1.1-1.8-1.8-3.8-2.2-5.8c-0.7-3.9-0.1-7.5,2.9-10.5c2.7-2.8,6-4.4,9.8-4.9c1.8-0.3,3.7,1.7,3.2,3.3
	c-1.2,3.6,0.2,6.7,1.9,9.7c0.2,0.3,0.3,0.3,0.6,0.2c4.2-1.1,8.3-0.7,12.4,0.8c1.9,0.7,3.7,1.7,5.6,2.6c0.8,0.4,1.3,1,1.4,1.8
	c0.2,1,0.4,2,0.2,3c-0.4,2.7-3,3.5-5.1,2.4c-2-1-4.1-1.7-6.3-2.3c-1.1-0.3-2.2-0.4-3.5-0.3c0.7,1,1.3,2,2,3c1.7,2.5,3.3,5,4.8,7.6
	c1.1,1.9,2.1,4,2.5,6.1c0.5,3.7,0.1,7.3-3,10c-2.6,2.4-5.8,3.4-9.2,4c-2.2,0.4-4.3,0-6.3-0.6c-1.8-0.5-3.4-1.4-4.9-2.6
	c-3.2-2.6-5.2-5.9-5.7-10c-0.1-0.9-0.3-1.9-0.4-2.8c-0.5,0.4-1,0.8-1.4,1.3c-1.6,1.9-3.4,3.5-5.4,4.9c-2.3,1.6-4.9,2.7-7.8,3
	c-1.5,0.1-2.9,0.2-4.4-0.2c-2.3-0.6-3.7-2.2-4.4-4.3c-1.1-3.1-0.9-6.3-0.5-9.5c0.3-2.7,0.7-5.5,1.2-8.2c0.4-2.1,0.5-4.3,1-6.4
	c0.1-0.3,0-0.6,0.1-1.1c-0.9,1.1-1.2,2.3-1.6,3.4c-0.8,2.5-1,5.1-1.7,7.6c-0.7,2.9-2.9,4.7-6.2,3.9c-1.5-0.4-2.4-1.4-3-2.7
	c-0.1-0.2,0-0.4-0.4-0.5c-0.5,2.3-1,4.5-1.6,6.8c-0.7,3-4.1,6.5-7.5,6.8c-1.3,0.1-2.5,0.2-3.7,0c-2.3-0.3-3.8-1.5-5.1-3.3
	c-0.1-0.2-0.2-0.3-0.4-0.6c-1.6,1.7-3.3,3.3-5.3,4.5c-3.8,2.2-7.8,3.3-12.2,2.2c-2.1-0.5-3.7-2-4.8-3.9c-1-1.7-1.4-3.6-1.6-5.5
	c-0.1-0.6-0.2-0.8-0.9-0.5c-1.8,0.7-3.7,1.2-5.7,1c-2.5-0.2-4.9-0.6-6.7-2.5c-0.3-0.3-0.5-0.1-0.7,0.1c-1.8,1.8-3.6,3.5-5.6,5
	c-2.5,1.8-5,3.4-7.9,4.5c-2.1,0.8-4.2,1.3-6.4,1.3c-1.7,0.1-3.5-0.2-5.1-1c-0.5-0.3-0.8-0.1-1,0.4c-1.6,2.6-3.4,5-5.6,7.1
	c-2.1,1.9-4.4,3.5-7.3,4.1c-2.1,0.4-4.3,0.6-6.3-0.2c-2.5-0.9-4.1-2.9-5.1-5.5c-1.5-4-1.1-8.1-1-12.2c0-2.1,0.6-4.2,0.8-6.3
	c0.2-2.5,0.8-4.9,1-7.3C77.8,104,77.9,103.9,77.9,103.7z M110.4,95.6c-0.2,0.1-0.3,0.1-0.5,0.2c-3.6,1.3-6.7,3.2-8.4,6.9
	c-1.9,4.2-2.5,8.5-1.8,13.1c0,0.3,0.1,0.5,0,0.8c-1.2,3-2.6,5.9-5,8.1c-0.6,0.6-1.3,1.6-2.4,1.2c-1-0.4-1-1.6-1-2.5
	c-0.2-4.4,0.5-8.7,1-13.1c0.3-2.7,1-5.4,0.6-8.1c-0.3-2.2-1.2-4-3.3-5c-1.9-0.9-3.9-1.4-6.1-1.3c-0.9,0.1-1.7,0-2.6-0.3
	c-0.8-0.2-1.2-0.7-1.2-1.6c0-0.5,0-1.1,0-1.6c-0.2-2.5-1.4-4-3.9-4.3c-2-0.3-3.9,0.2-5.8,0.9c-0.3,0.1-0.4,0.3-0.3,0.6
	c0.4,1.7,0.1,3.4,0,5.1c-0.1,2.5,0.9,4,3.1,4.9c2.5,1,5.1,1.2,7.7,1.3c0.8,0,1.1,0.2,1,1.1c-0.7,5.4-1.7,10.8-2.2,16.3
	c-0.3,3.5-0.4,7,0.7,10.4c1.1,3.4,3.4,4.7,6.9,4.1c2.7-0.5,4.9-1.8,6.9-3.7c2.8-2.7,4.9-6,6.8-9.4c0.2-0.4,0.3-0.8,0.8-0.2
	c1.5,1.8,3.4,2.5,5.6,2.5c3.4,0.1,6.5-1.2,9.3-2.9c4.4-2.5,8-5.9,11.2-9.7c0.2-0.2,0.3-0.6,0.6-0.5c0.3,0.1,0.2,0.4,0.3,0.7
	c0.6,1.6,1.7,2.8,3.3,3.4c2.1,0.8,4.2,0.7,6.4,0.1c1.9-0.6,3.6-1.6,5.1-2.9c0.2-0.2,0.4-0.7,0.8-0.5c0.3,0.1,0,0.5,0.1,0.8
	c0,1,0,2,0,3c0.1,2.2,0.3,4.5,1.4,6.6c0.9,1.7,2.3,2.6,4.2,2.7c3.9,0.2,7.4-1,10.4-3.5c2.4-2,4.2-4.4,6-6.9c0.1-0.2,0.2-0.5,0.5-0.5
	c0.4,0.1,0.2,0.4,0.2,0.7c0.1,1.6,0.4,3.1,1,4.6c0.5,1.2,1.3,2.2,2.6,2.5c1.9,0.5,3.8,0.3,5.5-0.8c1.9-1.2,2.7-3.1,3.1-5.2
	c0.8-3.8,1.6-7.7,2.7-11.5c0.5-1.7,1.1-3.4,2-5c0.1-0.2,0.2-0.5,0.5-0.5c0.3,0,0.3,0.3,0.4,0.5c0.2,0.7,0.4,1.3,0.5,2
	c0.5,2.4,0.5,4.9,0.9,7.3c0.1,0.8,0.2,1.6,0.7,2.3c0.8,1.1,2.1,1,2.7-0.2c0.3-0.6,0.4-1.2,0.6-1.9c0.6-3.1,0.9-6.2,2.3-9
	c0.8-1.6,1.7-3.1,3.4-3.9c1.7-0.8,2.9-0.3,3.3,1.6c0.3,1.5,0.2,3.1,0,4.7c-0.5,4.3-1.4,8.6-2,13c-0.3,2.4-0.5,4.9-0.1,7.3
	c0.5,2.8,1.9,4,4.7,3.9c2.6-0.1,4.9-0.9,7-2.3c3.1-2,5.5-4.6,7.8-7.4c2.1-2.5,3.9-5.2,5.6-8c0.1-0.2,0.2-0.6,0.6-0.4
	c0.5,0.2,1.1,1.7,0.8,2.2c-1.9,3.7-2.7,7.5-2.2,11.7c0.5,4.2,2.5,7.4,6.2,9.4c4.7,2.5,9.2,1.9,13.6-0.8c2.6-1.6,3.6-4.1,3.1-7.1
	c-0.4-2.8-1.7-5.2-3.1-7.6c-2.3-3.9-4.8-7.6-7.4-11.3c-0.4-0.6-0.4-0.9,0.3-1.3c1.3-0.8,2.7-1.1,4.2-1.2c3.9-0.1,7.5,1.1,11,2.8
	c0.3,0.1,0.7,0.6,0.9,0.1c0.2-0.4,0.2-0.9-0.2-1.3c-0.2-0.3-0.6-0.4-0.9-0.6c-1.4-0.8-2.8-1.4-4.3-2c-4.2-1.5-8.4-1.9-12.5,0.1
	c-0.6,0.3-0.7,0-1-0.4c-1-1.7-2-3.5-2.8-5.4c-1-2.4-1.8-4.9-0.9-7.6c0.2-0.5-0.1-0.6-0.5-0.4c-1.5,0.5-2.9,1-4.2,1.8
	c-4.3,2.6-5.6,6.1-4.3,10.9c0.6,2,1.5,3.8,2.5,5.5c0.3,0.5,0.3,0.8,0,1.3c-0.7,0.9-1.4,1.9-2.1,2.8c-2.6,3.2-5.4,6.2-8.8,8.6
	c-0.7,0.5-1.5,1.3-2.4,0.8c-1-0.5-0.9-1.6-0.9-2.6c0-2.5,0.3-5,0.6-7.4c0.3-2.4,0.6-4.9,0.5-7.3c-0.1-3-1.1-5.4-4.1-6.7
	c-2.2-1-4.5-1.2-6.9-0.9c-1.9,0.3-3.4,1.2-4.6,2.6c-1.6,1.9-2.6,4.1-3.3,6.4c-0.2,0.7-0.2,1.4-0.8,2.1c-0.1-1.8-0.2-3.3-0.4-4.9
	c-0.1-1.1-0.5-2.2-1-3.2c-1-1.9-3.1-2.3-4.7-0.8c-1,0.9-1.5,2.1-2.1,3.3c-0.2,0.5-0.3,1.1-0.8,1.5c0-1.5,0.1-2.9-0.1-4.4
	c-0.3-2.5-1.2-4.7-3.5-6c-2.1-1.2-4.4-1.2-6.7-0.9c-0.4,0-0.6,0.3-0.5,0.8c0.3,1.6,0.1,3.2,0,4.8c-0.3,3.9-1,7.8-1.3,11.7
	c-0.1,1-0.3,1.9-0.9,2.8c-1.6,2.6-3.3,5.1-5.5,7.2c-1.6,1.5-2.8,1.2-3.3-1c-0.1-0.4-0.2-0.8-0.2-1.1c-0.4-2.6-0.3-5.1-0.2-7.7
	c0.1-2.7,0.5-5.3,0.2-8c-0.2-1.8-0.7-3.5-2.3-4.6c-2.6-2-5.7-2.3-8.8-1.8c-0.5,0.1-0.6,0.3-0.5,0.8c0.2,1.2,0.1,2.3,0.1,3.5
	c0,0.6-0.1,0.8-0.8,0.7c-2.2-0.3-4.4-0.2-6.5,0.3c-3.9,1-7.2,3-9.1,6.7c-0.2,0.5-0.4,1-0.8,1.4c-3.1,3.7-6.4,7.1-10.2,9.9
	c-1.3,1-2.8,1.8-4.4,2.1c-1.5,0.3-2.6-0.3-3-1.7c-0.5-1.4-0.4-2.8-0.3-4.2c0-0.6,0.3-0.8,0.9-0.8c0.8,0,1.6-0.1,2.3-0.2
	c2.9-0.5,5.4-1.6,6.9-4.4c1.9-3.6,1.4-6.7-1.7-8.9c0.7-0.9,1.5-1.8,2-2.9c1.5-3.3,1.9-6.8,2-10.3c0.2-4.8-0.2-9.5-0.9-14.2
	c-0.1-0.9-0.1-1,0.8-0.8c3,0.7,6,1.3,9,2c0.4,0.1,0.8,0.1,0.9-0.4c0.2-0.6-0.2-0.6-0.6-0.8c-3.8-1-7.7-1.9-11.6-2.6
	c-0.9-0.2-1.1,0-0.9,0.9c0.7,4.1,1,8.2,0.7,12.3c-0.2,3.4-0.8,6.7-2,9.8c-0.1,0.2-0.1,0.5-0.5,0.5c-0.1-2-0.1-4-0.2-6
	c-0.1-4.9,0.1-9.7,0.2-14.6c0.1-2.9,0.2-5.8,0.3-8.6c0-0.4,0.1-0.7,0.4-1c1-1.2,1.9-2.5,2.5-3.9c2-5,1.7-9.9-0.4-14.8
	c-1.4-3.4-4-5.6-7.7-6.3c-0.3-0.1-0.6,0-0.9,0.1c-1.4,0.5-1.8,1.8-2,3c-0.3,2-0.6,4-0.7,6.1c-0.4,6.7-0.8,13.3-0.9,20
	c-0.1,4.1,0,8.2-0.1,12.2c0,0.3,0.1,0.7-0.2,1c-1.2,1.7-2.6,3.4-4.6,4.4c-1.2,0.6-2.1,0.2-2.4-1.1c-0.2-0.7-0.3-1.4-0.3-2.1
	c-0.1-2.9,0.3-5.8,0.7-8.7c0.3-2.1-0.5-3.6-2.2-4.4c-1.6-0.7-3.3-0.8-4.9-0.6c-0.4,0-0.7,0.1-0.7,0.6c0,1.5-0.3,3-0.5,4.5
	c-0.2,1.1,0.1,2.4-0.6,3.3c-2,3-4.4,5.5-7.6,7.2c-0.9,0.5-1.5,0.3-1.7-0.8c-0.2-1.1-0.4-2.2-0.3-3.3c0.1-3.3,0.1-6.7,0.2-10
	c0-0.5,0.1-0.9,0.5-1.2c1-1,1.8-2.2,2.4-3.5c2.4-5,2-10,0.1-15c-1.2-3.3-3.5-5.8-7.2-6.5c-1.8-0.4-2.8,0.1-3.4,1.9
	c-0.1,0.3-0.2,0.7-0.3,1c-0.5,3-0.7,6.1-0.9,9.1c-0.3,3.5-0.5,6.9-0.6,10.4C74.1,68,74,74.1,74.9,80.2c0.3,1.9,0.7,3.7,1.7,5.3
	c0.5,0.8,1.3,1.2,2.3,1.3c1.8,0,3.2-0.8,4.6-1.6c3.5-2.1,6.1-5.2,8.6-8.3c0.2-0.2,0.3-0.6,0.6-0.5c0.3,0.1,0.2,0.5,0.2,0.7
	c0.1,2.3,0.3,4.6,1.4,6.7c0.7,1.3,1.7,2.1,3.2,2.2c4.1,0.5,7.8-0.6,10.7-3.7c0.2-0.2,0.3-0.6,0.6-0.4c0.2,0.1,0.1,0.4,0.1,0.7
	c0.2,2.5,0.4,5,0.6,7.5C109.7,92,110.2,93.8,110.4,95.6z M186,74.4c-0.1,1.4-0.1,2.7-0.1,4c0.1,2.8,1.6,4.6,3.9,4.8
	c4.3,0.4,7.9-1,11-4c2.4-2.4,3.8-5.4,5.1-8.4c0.3-0.8-0.5-0.9-0.9-1.2c-0.5-0.3-0.6,0.2-0.7,0.5c-1.4,2.7-3.4,4.8-6,6.5
	c-1.2,0.8-2.1,0.4-2.5-0.9c-0.1-0.3-0.2-0.5-0.2-0.8c-0.5-2.6-0.3-5.1-0.1-7.7c0.5-6.3,1.6-12.5,2.4-18.7c0.3-2.4,0.2-4.9-1.9-6.6
	c-1.9-1.7-4.3-2.2-6.8-2.2c-0.4,0-0.6,0.2-0.5,0.6c0.1,2.4,0,4.9-0.1,7.3c-0.1,5.6-0.4,11.3-1.1,16.9c-0.1,0.6-0.2,0.7-0.8,0.6
	c-2.5-0.5-5-0.4-7.3,0.6c-3.6,1.4-5.9,4-6.4,8c-0.1,1-0.4,1.7-1.1,2.3c-2.1,2-4.1,4-6.6,5.5c-2.9,1.6-4.6,0.7-4.7-2.6
	c0-2,0-2,1.9-2.1c3.9-0.4,6.2-2.3,7-5.9c0.5-2.3-0.9-4.6-3.1-5.1c-1-0.3-2.1-0.3-3.2-0.2c-5.9,0.5-9.9,3.8-11,9.7
	c-0.1,0.7,0,1.5-0.4,2.2c-1.1,1.7-2.2,3.4-3.7,4.8c-0.7,0.7-1.5,1.5-2.6,1.1c-1.1-0.4-1.2-1.5-1.4-2.6c-0.5-2.7-0.4-5.4-0.5-8.1
	c-0.1-5.2,0.1-10.5,0.3-15.7c0-0.6,0.2-0.8,0.8-0.9c2-0.2,4-0.6,6-0.8c1-0.1,0.7-0.8,0.7-1.4c0-0.7-0.4-0.7-0.9-0.7
	c-1.8,0-3.5,0-5.3,0.1c-1.3,0.1-1.3,0-1.2-1.2c0.2-1.9,0.3-3.8,0.3-5.7c0-1.6-0.4-3.2-1.7-4.3c-2.1-1.7-4.6-2-7.1-1.6
	c-0.3,0.1-0.5,0.2-0.4,0.6c0.1,0.4,0.1,0.7,0.1,1.1c0.1,3.8-0.2,7.5-0.4,11.2c0,0.6-0.3,0.7-0.8,0.8c-2.1,0.3-4.2,0.6-6.3,0.9
	c-0.4,0.1-1,0-0.8,0.7c0.1,0.6-0.1,1.4,1.1,1.3c2-0.1,4-0.1,5.9-0.2c0.5,0,0.8,0,0.8,0.6c-0.1,1-0.1,2.1-0.2,3.1
	c-0.4,6.9-0.7,13.8,0.2,20.6c0.3,2,0.6,3.9,1.5,5.7c0.6,1.1,1.4,2,2.7,2.1c2.6,0.2,4.9-0.4,7-1.9c2.1-1.5,3.7-3.4,5.3-5.4
	c0.1-0.2,0.2-0.5,0.5-0.4c0.3,0,0.2,0.4,0.3,0.6c0.7,3.1,2.9,4.8,6,4.8c3.1,0,5.8-1.3,8.4-2.9c2.7-1.7,5-3.9,7.1-6.2
	c0.3-0.3,0.5-0.6,0.9-0.2c2.3,1.9,4.8,1.7,7.3,0.5C183.5,77.1,184.8,75.8,186,74.4z M46.7,105.9c0.2,0.5,0.1,0.8,0.1,1.1
	c-0.2,1.4-0.3,2.8-0.1,4.2c0.4,4.2,2,6.1,6.3,6.2c4.7,0.1,8.6-1.5,12.1-4.7c3.4-3.1,5.2-7.1,6.9-11.2c0.4-0.9-0.8-1.1-1.3-1.5
	c-0.5-0.4-0.6,0.3-0.7,0.6c-1.8,3.4-4.3,6.1-7.4,8.2c-1.7,1.1-2.8,0.7-3.4-1.3c-0.4-1.3-0.5-2.5-0.5-3.8c-0.2-6.1,0.8-12.1,1.5-18.1
	c0.6-4.5,1.4-8.9,1.7-13.5c0.2-2.5-0.2-4.9-2.2-6.7c-2.5-2.3-5.7-3-9-3c-0.4,0-0.5,0.3-0.5,0.7c0.2,5.8-0.1,11.5-0.3,17.3
	c-0.2,4.4-0.6,8.7-1,13.1c-0.1,0.8-0.2,1.1-1.2,0.9c-3.2-0.6-6.4-0.3-9.4,0.8c-4.6,1.8-7.9,6.7-7.7,10.7c0.1,2.3,1.5,4.3,3.7,5.1
	c3.1,1.1,6,0.4,8.6-1.4C44.3,108.9,45.6,107.6,46.7,105.9z M90.6,83.5c-2.3,2.4-4.8,4.5-7.9,5.7c-0.3,0.1-0.3,0.3-0.2,0.5
	c0.2,0.6,0.3,1.3,0.3,1.9c0,0.7,0.3,1,1.1,0.9c1.9-0.2,3.8,0.3,5.6,1c3,1.1,5.2,3.1,6.1,6.3c0.5,1.7,0.6,3.4,0.5,5.2
	c-0.1,2.4-0.6,4.7-0.8,7c-0.2,2.5-0.7,4.9-0.8,7.7c0.9-1.7,2-3.1,1.7-5c-0.1-0.5-0.2-1-0.2-1.5c0-3.1,0.3-6.2,1.3-9.2
	c1-3,2.5-5.6,4.9-7.6c1.2-1,2.4-1.9,3.8-2.5c0.3-0.1,0.6-0.2,0.5-0.7c-0.3-1.5-0.4-3-0.5-4.5c0-0.4-0.1-0.8-0.7-0.6
	c-1.3,0.6-2.7,1-4.1,1.2c-1.5,0.2-3.1,0.3-4.6,0C93.6,88.6,91.7,86.5,90.6,83.5z M138.6,92.4c-0.1-0.1-0.2-0.1-0.2-0.2
	c-0.1,0-0.2-0.1-0.3-0.1c-2.4-0.5-3.9-2.1-4.8-4.2c-1.2-2.6-1.7-5.5-1.8-8.3c-0.1-2.2-0.6-4.4-0.4-6.6c0-0.4-0.2-0.5-0.5-0.6
	c-1.5-0.3-3-0.6-4.5-1c-0.1,1.4,0.3,2.8,0.3,4.2c0,3.6,0.2,7.1-0.3,10.7c-0.4,3-1,5.9-2.4,8.5c-0.2,0.4-0.2,0.8,0.1,1.2
	c1,1.4,1.4,2.9,1.4,4.6c0,1-0.3,1.9-0.3,2.8c1.9-2.4,3-5.3,5.5-7.2C132.8,94.4,135.5,93.1,138.6,92.4z M160.4,110.4
	c0.3-0.4,0.6-0.6,0.9-1c1-1.4,2.3-2.7,2.6-4.4c0.4-2.2,0.7-4.3,0.8-6.5c0.1-1.5,0.3-3,0.5-4.4c0.3-1.9,0.1-3.8,0.2-5.9
	c-2.6,1.2-5.2,2-8,1.9c2.4,2.8,2.8,3.5,3.1,6.7c0.3,3.2-0.1,6.5-0.2,9.8C160.3,107.8,160.1,109.1,160.4,110.4z M103.1,56.2
	c0-2.4-2-4.5-4.4-4.5c-2.5,0-4.5,2-4.6,4.5c0,2.3,2,4.4,4.4,4.4C101.1,60.7,103.1,58.6,103.1,56.2z M86.5,75c1-0.9,1.7-1.6,2.3-2.4
	c0.7-0.8,1.3-1.5,1.5-2.6c0.2-1.9,0.4-3.7,0.6-5.6c0.1-1.3,0.3-2.5,1.6-3.2c0.2-0.1,0.3-0.1,0.1-0.4c-0.3-0.5-0.6-1-0.9-1.5
	c-0.3-0.5-0.4-1.1-0.7-1.8c-0.6,3.2-2,5.9-4,8.3c-0.1,0.2-0.2,0.3-0.2,0.6C86.7,69.2,86.8,72,86.5,75z M123.9,57.3
	c-0.6,1.3-1.4,2.2-2,3.1c-0.4,0.6-0.2,1.9,0.2,2.1c2.9,0.7,5.7,1.4,8.6,2.1c0.3,0.1,0.5,0.1,0.6-0.4c0.2-1.1,0.1-2.1,0.2-3.2
	c0-0.5-0.1-0.7-0.7-0.7c-1,0.1-2.1,0-3.1,0C125.6,60.3,124.4,59.3,123.9,57.3z M105.6,59.6c-0.5,0.7-0.9,1.4-1.6,2
	c-0.4,0.3-1,0.6-1.1,1c-0.1,0.5,0.7,0.8,0.9,1.2c0.1,0.2,0.3,0.4,0.4,0.6c1.1,2,1.3,4.1,0.8,6.3c-0.4,1.9-0.3,3.8-0.6,5.7
	c0.6-0.5,1.1-1,1-1.9c0-4.3,0-8.5,0-12.8C105.5,61,105.8,60.3,105.6,59.6z"/>
<path fill="#FFFFFF" d="M133.7,141.2c0-0.2,0-0.3,0.2-0.4c0.1,0.2,0.1,0.4,0,0.6C133.8,141.3,133.7,141.3,133.7,141.2z"/>
<path fill="#FFFFFF" d="M149.5,143.7C149.5,143.7,149.5,143.7,149.5,143.7C149.5,143.7,149.5,143.7,149.5,143.7
	C149.5,143.8,149.5,143.8,149.5,143.7C149.4,143.7,149.5,143.7,149.5,143.7z"/>
<path fill="#F4F3F3" d="M178.8,144c0,0.6-0.2,0.9-0.6,0.9c-0.4,0.1-0.7,0.1-0.9-0.4c-0.4-1.5-0.9-3-1.3-4.5
	c-0.1-0.4,0.1-0.6,0.5-0.7c0.3-0.1,0.7-0.1,0.9,0.2C177.9,141.1,178.4,142.6,178.8,144z"/>
<path fill="#F4F3F3" d="M141.8,145.7c0.3-1.4,0.6-2.9,0.9-4.3c0.1-0.5,0.4-0.6,0.9-0.5c0.5,0.1,0.7,0.4,0.6,0.8
	c-0.2,1.4-0.5,2.8-0.8,4.2c-0.1,0.5-0.3,0.8-0.9,0.7C142,146.5,141.7,146.3,141.8,145.7z"/>
<path fill="#F4F3F3" d="M183.1,137c0.4-0.1,0.6,0.1,0.7,0.3c0.2,0.5,0.5,1,0.6,1.6c0.2,0.5-0.2,0.7-0.6,0.9
	c-0.6,0.3-0.5-0.3-0.6-0.5c-0.2-0.4-0.3-1-0.6-1.4C182.3,137.1,182.8,137.1,183.1,137z"/>
<path fill="#299571" d="M119.1,95.8c3.1,2.2,3.6,5.2,1.7,8.9c-1.5,2.8-4,4-6.9,4.4c-0.8,0.1-1.6,0.2-2.3,0.2c-0.6,0-0.8,0.2-0.9,0.8
	c-0.1,1.4-0.2,2.8,0.3,4.2c0.5,1.4,1.6,2,3,1.7c1.7-0.3,3.1-1.1,4.4-2.1c3.9-2.8,7.2-6.3,10.2-9.9c0.4-0.4,0.5-0.9,0.8-1.4
	c1.9-3.8,5.2-5.7,9.1-6.7c2.1-0.6,4.3-0.6,6.5-0.3c0.7,0.1,0.8-0.1,0.8-0.7c0-1.2,0.1-2.3-0.1-3.5c-0.1-0.5,0-0.7,0.5-0.8
	c3.2-0.4,6.2-0.2,8.8,1.8c1.5,1.1,2.1,2.8,2.3,4.6c0.2,2.7-0.2,5.3-0.2,8c-0.1,2.6-0.2,5.2,0.2,7.7c0.1,0.4,0.1,0.8,0.2,1.1
	c0.6,2.1,1.7,2.5,3.3,1c2.2-2.1,3.9-4.6,5.5-7.2c0.5-0.9,0.8-1.8,0.9-2.8c0.4-3.9,1-7.8,1.3-11.7c0.1-1.6,0.2-3.2,0-4.8
	c-0.1-0.5,0.1-0.7,0.5-0.8c2.3-0.2,4.5-0.2,6.7,0.9c2.4,1.3,3.3,3.4,3.5,6c0.1,1.5,0,2.9,0.1,4.4c0.5-0.4,0.5-1,0.8-1.5
	c0.6-1.2,1.1-2.4,2.1-3.3c1.6-1.5,3.7-1.1,4.7,0.8c0.5,1,0.9,2.1,1,3.2c0.2,1.6,0.3,3.1,0.4,4.9c0.6-0.7,0.6-1.5,0.8-2.1
	c0.7-2.3,1.7-4.6,3.3-6.4c1.2-1.4,2.8-2.3,4.6-2.6c2.4-0.3,4.7-0.1,6.9,0.9c2.9,1.3,4,3.7,4.1,6.7c0.1,2.5-0.3,4.9-0.5,7.3
	c-0.3,2.5-0.6,4.9-0.6,7.4c0,1-0.1,2.1,0.9,2.6c0.9,0.5,1.7-0.3,2.4-0.8c3.4-2.4,6.2-5.4,8.8-8.6c0.7-0.9,1.4-1.9,2.1-2.8
	c0.4-0.4,0.3-0.8,0-1.3c-1.1-1.7-2-3.6-2.5-5.5c-1.3-4.8,0-8.3,4.3-10.9c1.3-0.8,2.8-1.3,4.2-1.8c0.4-0.1,0.7-0.1,0.5,0.4
	c-0.9,2.7-0.1,5.2,0.9,7.6c0.8,1.9,1.7,3.6,2.8,5.4c0.2,0.4,0.4,0.7,1,0.4c4.1-2,8.3-1.6,12.5-0.1c1.5,0.5,2.9,1.2,4.3,2
	c0.3,0.2,0.6,0.4,0.9,0.6c0.4,0.4,0.3,1,0.2,1.3c-0.2,0.4-0.6,0-0.9-0.1c-3.5-1.6-7.1-2.9-11-2.8c-1.5,0-2.9,0.4-4.2,1.2
	c-0.7,0.4-0.7,0.7-0.3,1.3c2.6,3.7,5.1,7.4,7.4,11.3c1.4,2.4,2.7,4.8,3.1,7.6c0.4,3-0.6,5.5-3.1,7.1c-4.3,2.7-8.9,3.3-13.6,0.8
	c-3.8-2-5.7-5.2-6.2-9.4c-0.5-4.1,0.3-8,2.2-11.7c0.3-0.5-0.3-2-0.8-2.2c-0.4-0.1-0.4,0.2-0.6,0.4c-1.7,2.8-3.5,5.5-5.6,8
	c-2.3,2.7-4.7,5.4-7.8,7.4c-2.1,1.4-4.5,2.2-7,2.3c-2.8,0.1-4.2-1.1-4.7-3.9c-0.4-2.5-0.2-4.9,0.1-7.3c0.6-4.3,1.5-8.6,2-13
	c0.2-1.5,0.3-3.1,0-4.7c-0.4-1.9-1.6-2.5-3.3-1.6c-1.7,0.8-2.6,2.3-3.4,3.9c-1.4,2.9-1.7,6-2.3,9c-0.1,0.7-0.2,1.3-0.6,1.9
	c-0.6,1.2-1.9,1.2-2.7,0.2c-0.5-0.7-0.6-1.5-0.7-2.3c-0.4-2.4-0.4-4.9-0.9-7.3c-0.1-0.7-0.3-1.3-0.5-2c-0.1-0.2-0.1-0.5-0.4-0.5
	c-0.3,0-0.4,0.3-0.5,0.5c-0.9,1.6-1.5,3.3-2,5c-1.1,3.8-1.9,7.6-2.7,11.5c-0.4,2.1-1.2,4-3.1,5.2c-1.7,1.1-3.6,1.4-5.5,0.8
	c-1.3-0.4-2.1-1.3-2.6-2.5c-0.6-1.5-0.8-3-1-4.6c0-0.2,0.2-0.6-0.2-0.7c-0.3-0.1-0.3,0.3-0.5,0.5c-1.8,2.5-3.6,4.9-6,6.9
	c-3,2.5-6.5,3.7-10.4,3.5c-1.9-0.1-3.4-1-4.2-2.7c-1-2.1-1.2-4.3-1.4-6.6c-0.1-1,0-2,0-3c0-0.3,0.3-0.7-0.1-0.8
	c-0.4-0.2-0.5,0.3-0.8,0.5c-1.5,1.3-3.2,2.4-5.1,2.9c-2.1,0.6-4.3,0.7-6.4-0.1c-1.7-0.6-2.7-1.8-3.3-3.4c-0.1-0.2-0.1-0.6-0.3-0.7
	c-0.3-0.1-0.5,0.3-0.6,0.5c-3.2,3.8-6.9,7.2-11.2,9.7c-2.9,1.7-5.9,2.9-9.3,2.9c-2.2,0-4.2-0.7-5.6-2.5c-0.5-0.6-0.6-0.2-0.8,0.2
	c-1.9,3.4-3.9,6.7-6.8,9.4c-1.9,1.9-4.2,3.2-6.9,3.7c-3.5,0.6-5.9-0.7-6.9-4.1c-1.1-3.4-1-6.9-0.7-10.4c0.5-5.5,1.5-10.9,2.2-16.3
	c0.1-0.9-0.1-1.1-1-1.1c-2.6,0-5.2-0.2-7.7-1.3c-2.3-1-3.2-2.5-3.1-4.9c0.1-1.7,0.4-3.4,0-5.1c-0.1-0.3,0.1-0.5,0.3-0.6
	c1.9-0.7,3.8-1.2,5.8-0.9c2.4,0.4,3.7,1.8,3.9,4.3c0,0.5,0,1.1,0,1.6c0,0.9,0.4,1.3,1.2,1.6c0.8,0.2,1.7,0.3,2.6,0.3
	c2.1-0.1,4.2,0.4,6.1,1.3c2.1,1,3,2.8,3.3,5c0.4,2.8-0.3,5.4-0.6,8.1c-0.5,4.3-1.2,8.7-1,13.1c0,1,0,2.1,1,2.5
	c1,0.4,1.7-0.5,2.4-1.2c2.4-2.3,3.8-5.2,5-8.1c0.1-0.3,0.1-0.5,0-0.8c-0.7-4.5-0.1-8.9,1.8-13.1c1.7-3.6,4.8-5.6,8.4-6.9
	c0.2-0.1,0.3-0.1,0.5-0.2c0.4-0.1,0.9-0.2,1.3-0.3C114.2,94.8,116.7,94.6,119.1,95.8z M224.8,116.7c-0.1,1.7,0.3,3.4,0.9,5
	c0.8,2,2.2,3.4,4.3,4.1c1.4,0.4,2.2-0.1,2.6-1.5c0.6-2.6-0.1-4.9-1.5-7c-1.4-2.2-2.9-4.2-4.4-6.3c-0.1-0.2-0.2-0.5-0.5-0.4
	c-0.3,0.1-0.3,0.4-0.4,0.6C225.1,113,224.8,114.8,224.8,116.7z M136.2,105.1c0,0.2,0,0.5,0,0.7c0.1,1.6,1.1,2.3,2.6,2
	c0.4-0.1,0.8-0.3,1.2-0.4c1.2-0.5,2.1-1.3,3.1-2.1c1.3-0.9,2.1-2,2-3.7c0-0.5,0.1-1,0.2-1.4c0.2-0.6-0.1-0.8-0.7-0.8
	c-1.8,0.1-3.6,0.5-5.3,1.2C137.2,101.4,136.2,102.8,136.2,105.1z M112.4,107.4c0.3,0,0.9-0.1,1.4-0.2c2.5-0.4,4.6-2.4,5-4.7
	c0.4-2.3-1.2-3.7-3.4-3c-1.2,0.4-2,1.2-2.6,2.3c-0.8,1.4-1.2,2.9-1.5,4.4C110.9,107.4,111,107.5,112.4,107.4z"/>
<path fill="#54BE95" d="M119.1,95.8c-2.4-1.2-4.9-1-7.4-0.5c-0.4,0.1-0.9,0.2-1.3,0.3c-0.2-1.8-0.7-3.6-0.8-5.4
	c-0.2-2.5-0.5-5-0.6-7.5c0-0.2,0.1-0.5-0.1-0.7c-0.3-0.2-0.4,0.2-0.6,0.4c-3,3-6.6,4.1-10.7,3.7c-1.4-0.2-2.5-0.9-3.2-2.2
	c-1.1-2.1-1.3-4.4-1.4-6.7c0-0.2,0.2-0.6-0.2-0.7c-0.3-0.1-0.4,0.3-0.6,0.5c-2.5,3.1-5.1,6.2-8.6,8.3c-1.4,0.8-2.8,1.6-4.6,1.6
	c-1,0-1.8-0.4-2.3-1.3c-1.1-1.6-1.4-3.5-1.7-5.3C74,74.1,74.1,68,74.3,61.9c0.1-3.5,0.3-6.9,0.6-10.4c0.2-3,0.4-6.1,0.9-9.1
	c0.1-0.4,0.1-0.7,0.3-1c0.6-1.8,1.5-2.3,3.4-1.9c3.7,0.8,5.9,3.2,7.2,6.5c1.9,5,2.2,10-0.1,15c-0.6,1.3-1.4,2.4-2.4,3.5
	c-0.3,0.3-0.5,0.7-0.5,1.2c0,3.3-0.1,6.7-0.2,10c0,1.1,0.1,2.2,0.3,3.3c0.2,1,0.7,1.3,1.7,0.8c3.2-1.7,5.6-4.3,7.6-7.2
	c0.6-1,0.4-2.2,0.6-3.3c0.2-1.5,0.5-3,0.5-4.5c0-0.5,0.3-0.6,0.7-0.6c1.7-0.1,3.4-0.1,4.9,0.6c1.7,0.8,2.5,2.3,2.2,4.4
	c-0.4,2.9-0.8,5.8-0.7,8.7c0,0.7,0.1,1.4,0.3,2.1c0.3,1.3,1.2,1.7,2.4,1.1c2-1,3.3-2.6,4.6-4.4c0.2-0.3,0.1-0.6,0.2-1
	c0-4.1,0-8.2,0.1-12.2c0.1-6.7,0.5-13.4,0.9-20c0.1-2,0.4-4.1,0.7-6.1c0.2-1.2,0.6-2.5,2-3c0.3-0.1,0.5-0.2,0.9-0.1
	c3.7,0.7,6.3,2.9,7.7,6.3c2,4.8,2.4,9.8,0.4,14.8c-0.6,1.5-1.5,2.7-2.5,3.9c-0.3,0.3-0.4,0.6-0.4,1c-0.1,2.9-0.2,5.8-0.3,8.6
	c-0.1,4.9-0.3,9.7-0.2,14.6c0,2,0.1,4,0.2,6c0.4,0,0.4-0.3,0.5-0.5c1.2-3.2,1.7-6.5,2-9.8c0.3-4.2,0-8.3-0.7-12.3
	c-0.2-1,0-1.1,0.9-0.9c3.9,0.7,7.7,1.6,11.6,2.6c0.4,0.1,0.8,0.2,0.6,0.8c-0.1,0.5-0.4,0.5-0.9,0.4c-3-0.7-6-1.3-9-2
	c-0.9-0.2-1-0.2-0.8,0.8c0.7,4.7,1.1,9.5,0.9,14.2c-0.2,3.5-0.5,7.1-2,10.3C120.6,94,119.7,94.8,119.1,95.8z M83.7,61.8
	c0.3-0.2,0.4-0.2,0.4-0.3c2.5-4.1,2.8-8.4,0.9-12.8c-0.1-0.2-0.1-0.5-0.4-0.4c-0.3,0.1-0.2,0.4-0.2,0.6c-0.1,1.7-0.2,3.4-0.3,5.1
	C84,56.5,83.9,59.1,83.7,61.8z M119.2,43.2c-0.1,0.8-0.2,1.6-0.2,2.4c-0.1,3.2-0.3,6.5-0.4,9.7c0,0.3-0.3,0.8,0.1,0.9
	c0.4,0.1,0.5-0.4,0.6-0.7c1.4-2.6,1.8-5.4,1.4-8.2C120.5,45.9,120.2,44.5,119.2,43.2z"/>
<path fill="#54BE95" d="M186,74.4c-1.3,1.4-2.6,2.7-4.2,3.5c-2.5,1.2-5,1.4-7.3-0.5c-0.5-0.4-0.7,0-0.9,0.2
	c-2.1,2.3-4.4,4.5-7.1,6.2c-2.6,1.6-5.2,2.9-8.4,2.9c-3.1,0-5.3-1.8-6-4.8c0-0.2,0.1-0.5-0.3-0.6c-0.3,0-0.4,0.3-0.5,0.4
	c-1.6,2-3.2,3.9-5.3,5.4c-2.1,1.5-4.5,2.1-7,1.9c-1.4-0.1-2.1-1-2.7-2.1c-0.9-1.8-1.2-3.7-1.5-5.7c-0.9-6.9-0.6-13.8-0.2-20.6
	c0.1-1,0.1-2.1,0.2-3.1c0-0.6-0.3-0.7-0.8-0.6c-2,0.1-4,0-5.9,0.2c-1.1,0.1-1-0.7-1.1-1.3c-0.1-0.7,0.4-0.7,0.8-0.7
	c2.1-0.3,4.2-0.6,6.3-0.9c0.5-0.1,0.8-0.2,0.8-0.8c0.1-3.7,0.5-7.5,0.4-11.2c0-0.4,0-0.7-0.1-1.1c0-0.3,0.1-0.5,0.4-0.6
	c2.6-0.4,5-0.1,7.1,1.6c1.3,1.1,1.7,2.7,1.7,4.3c0.1,1.9-0.1,3.8-0.3,5.7c-0.1,1.3-0.1,1.3,1.2,1.2c1.8-0.1,3.5-0.1,5.3-0.1
	c0.5,0,0.9,0,0.9,0.7c0,0.6,0.3,1.3-0.7,1.4c-2,0.2-4,0.6-6,0.8c-0.6,0.1-0.8,0.3-0.8,0.9c-0.2,5.2-0.4,10.5-0.3,15.7
	c0.1,2.7,0,5.4,0.5,8.1c0.2,1,0.3,2.1,1.4,2.6c1.1,0.4,1.9-0.4,2.6-1.1c1.5-1.4,2.6-3,3.7-4.8c0.4-0.7,0.3-1.5,0.4-2.2
	c1.1-5.9,5.1-9.2,11-9.7c1.1-0.1,2.2,0,3.2,0.2c2.3,0.6,3.6,2.9,3.1,5.1c-0.8,3.6-3,5.5-7,5.9c-2,0.2-2,0.2-1.9,2.1
	c0,3.2,1.8,4.2,4.7,2.6c2.5-1.4,4.6-3.5,6.6-5.5c0.7-0.6,1-1.3,1.1-2.3c0.4-4,2.7-6.5,6.4-8c2.4-0.9,4.8-1.1,7.3-0.6
	c0.6,0.1,0.7,0,0.8-0.6c0.7-5.6,0.9-11.2,1.1-16.9c0.1-2.4,0.2-4.9,0.1-7.3c0-0.4,0.1-0.6,0.5-0.6c2.5,0,4.8,0.5,6.8,2.2
	c2.1,1.8,2.2,4.2,1.9,6.6c-0.8,6.2-1.8,12.4-2.4,18.7c-0.2,2.6-0.4,5.1,0.1,7.7c0.1,0.3,0.1,0.5,0.2,0.8c0.5,1.3,1.3,1.6,2.5,0.9
	c2.5-1.7,4.5-3.8,6-6.5c0.2-0.3,0.2-0.8,0.7-0.5c0.4,0.3,1.2,0.4,0.9,1.2c-1.3,3-2.6,6-5.1,8.4c-3.1,3-6.7,4.4-11,4
	c-2.3-0.2-3.8-2-3.9-4.8C185.9,77.1,185.9,75.8,186,74.4z M185.5,68.2c-1,0.1-2.2,0.3-3.4,0.7c-1.9,0.6-2.9,2.2-2.6,4.1
	c0.1,0.9,0.7,1.4,1.6,1.3c0.6,0,1-0.2,1.5-0.5c1.7-1.1,3-2.6,3.9-4.5C187.1,68.3,187,68.2,185.5,68.2z M161.9,75.4
	c2.2-0.1,4.1-0.8,5.1-3c0.6-1.3,0.4-2.5-0.5-3.1c-0.8-0.6-2.3-0.3-3.2,0.5c-0.2,0.2-0.3,0.4-0.5,0.5c-1,1.3-1.3,2.9-1.7,4.4
	C161,75.4,161.5,75.4,161.9,75.4z"/>
<path fill="#289470" d="M46.7,105.9c-1.1,1.7-2.4,2.9-4,4c-2.6,1.8-5.5,2.5-8.6,1.4c-2.2-0.8-3.6-2.8-3.7-5.1
	c-0.2-4.1,3.1-9,7.7-10.7c3.1-1.2,6.2-1.5,9.4-0.8c1,0.2,1.1-0.2,1.2-0.9c0.5-4.4,0.9-8.7,1-13.1c0.2-5.8,0.5-11.5,0.3-17.3
	c0-0.4,0-0.7,0.5-0.7c3.3,0,6.5,0.7,9,3c2,1.8,2.4,4.2,2.2,6.7c-0.4,4.5-1.2,9-1.7,13.5c-0.8,6-1.7,12-1.5,18.1
	c0,1.3,0.1,2.6,0.5,3.8c0.6,2,1.7,2.4,3.4,1.3c3.1-2.1,5.6-4.8,7.4-8.2c0.2-0.3,0.2-1,0.7-0.6c0.5,0.4,1.6,0.5,1.3,1.5
	c-1.6,4.1-3.5,8.1-6.9,11.2c-3.5,3.1-7.4,4.8-12.1,4.7c-4.3-0.1-6-2-6.3-6.2c-0.1-1.4-0.1-2.8,0.1-4.2
	C46.8,106.7,46.9,106.4,46.7,105.9z M46.7,98.5c-1.7,0.1-3.4,0.4-5.1,0.9c-1.8,0.6-2.9,1.9-3,3.8c-0.1,1-0.2,2.1,0.8,2.8
	c1.1,0.7,2.1,0.2,3-0.4c2.5-1.5,4.2-3.8,5.3-6.5c0.2-0.5,0.1-0.7-0.5-0.7C47.1,98.5,46.9,98.5,46.7,98.5z"/>
<path fill="#0C0B0B" d="M90.6,83.5c1.1,3,3,5.1,6.2,5.8c1.6,0.3,3.1,0.2,4.6,0c1.4-0.2,2.8-0.6,4.1-1.2c0.6-0.3,0.6,0.1,0.7,0.6
	c0.1,1.5,0.2,3,0.5,4.5c0.1,0.5-0.2,0.6-0.5,0.7c-1.4,0.6-2.6,1.5-3.8,2.5c-2.4,2-4,4.7-4.9,7.6c-1,3-1.3,6.1-1.3,9.2
	c0,0.5,0.1,1,0.2,1.5c0.2,1.9-0.9,3.2-1.7,5c0.1-2.7,0.5-5.2,0.8-7.7c0.2-2.3,0.7-4.6,0.8-7c0.1-1.8,0-3.5-0.5-5.2
	c-0.9-3.2-3.1-5.2-6.1-6.3c-1.8-0.7-3.7-1.2-5.6-1c-0.8,0.1-1.1-0.2-1.1-0.9c0-0.7-0.1-1.3-0.3-1.9c-0.1-0.2-0.1-0.4,0.2-0.5
	C85.8,88,88.3,85.9,90.6,83.5z"/>
<path fill="#090909" d="M138.6,92.4c-3.1,0.6-5.8,1.9-8.2,3.8c-2.5,1.9-3.6,4.9-5.5,7.2c0-1,0.3-1.9,0.3-2.8c0-1.7-0.4-3.3-1.4-4.6
	c-0.3-0.4-0.3-0.7-0.1-1.2c1.4-2.7,2-5.6,2.4-8.5c0.5-3.6,0.2-7.1,0.3-10.7c0-1.4-0.4-2.7-0.3-4.2c1.5,0.3,3,0.7,4.5,1
	c0.3,0.1,0.5,0.2,0.5,0.6c-0.2,2.2,0.3,4.4,0.4,6.6c0.1,2.9,0.6,5.7,1.8,8.3c0.9,2.1,2.4,3.7,4.8,4.2c0.1,0,0.2,0.1,0.3,0.1
	C138.4,92.3,138.4,92.4,138.6,92.4z"/>
<path fill="#0C0B0B" d="M160.4,110.4c-0.3-1.3-0.2-2.6-0.1-3.9c0.1-3.3,0.5-6.5,0.2-9.8c-0.3-3.2-0.7-3.9-3.1-6.7
	c2.8,0.1,5.4-0.7,8-1.9c-0.1,2,0.1,4-0.2,5.9c-0.3,1.5-0.4,2.9-0.5,4.4c-0.1,2.2-0.4,4.4-0.8,6.5c-0.3,1.7-1.6,3-2.6,4.4
	C161.1,109.8,160.8,110,160.4,110.4z"/>
<path fill="#54BE95" d="M103.1,56.2c0,2.5-2,4.5-4.5,4.4c-2.4,0-4.5-2.1-4.4-4.4c0-2.5,2.1-4.5,4.6-4.5
	C101.1,51.7,103.1,53.8,103.1,56.2z"/>
<path fill="#100F0F" d="M86.5,75c0.3-3.1,0.2-5.9,0.3-8.7c0-0.2,0.1-0.4,0.2-0.6c2-2.4,3.3-5.1,4-8.3c0.3,0.7,0.5,1.2,0.7,1.8
	c0.3,0.5,0.6,1,0.9,1.5c0.2,0.2,0,0.3-0.1,0.4c-1.3,0.7-1.5,1.9-1.6,3.2c-0.1,1.9-0.4,3.7-0.6,5.6c-0.1,1.1-0.8,1.8-1.5,2.6
	C88.2,73.4,87.5,74.2,86.5,75z"/>
<path fill="#100F0F" d="M123.9,57.3c0.5,2,1.7,2.9,3.7,2.9c1,0,2.1,0,3.1,0c0.6,0,0.7,0.2,0.7,0.7c-0.1,1.1,0.1,2.1-0.2,3.2
	c-0.1,0.5-0.3,0.5-0.6,0.4c-2.9-0.7-5.7-1.4-8.6-2.1c-0.4-0.1-0.6-1.5-0.2-2.1C122.5,59.5,123.3,58.6,123.9,57.3z"/>
<path fill="#1D1C1C" d="M105.6,59.6c0.2,0.7-0.1,1.4-0.1,2.1c0,4.3,0,8.5,0,12.8c0,0.9-0.4,1.4-1,1.9c0.3-1.9,0.2-3.8,0.6-5.7
	c0.5-2.2,0.3-4.3-0.8-6.3c-0.1-0.2-0.3-0.4-0.4-0.6c-0.3-0.5-1-0.7-0.9-1.2c0.1-0.4,0.7-0.7,1.1-1C104.7,61,105.1,60.3,105.6,59.6z"
	/>
<path fill="#F6F9F7" d="M224.8,116.7c0-1.9,0.4-3.7,1-5.4c0.1-0.2,0.1-0.5,0.4-0.6c0.3-0.1,0.4,0.2,0.5,0.4c1.5,2,3,4.1,4.4,6.3
	c1.3,2.2,2.1,4.4,1.5,7c-0.3,1.4-1.2,1.9-2.6,1.5c-2.1-0.7-3.5-2.1-4.3-4.1C225.1,120.1,224.7,118.4,224.8,116.7z M229.1,121.5
	c0.2-0.7-0.1-1.2-0.6-1.8C228.6,120.4,228.7,121,229.1,121.5z"/>
<path fill="#F6F9F7" d="M136.2,105.1c0-2.3,1-3.7,3.1-4.6c1.7-0.7,3.5-1.1,5.3-1.2c0.6,0,0.8,0.1,0.7,0.8c-0.1,0.5-0.2,1-0.2,1.4
	c0.1,1.6-0.7,2.8-2,3.7c-1,0.7-2,1.6-3.1,2.1c-0.4,0.2-0.8,0.4-1.2,0.4c-1.5,0.4-2.5-0.4-2.6-2C136.2,105.6,136.2,105.3,136.2,105.1
	z"/>
<path fill="#F5F8F6" d="M112.4,107.4c-1.5,0-1.5,0-1.2-1.2c0.3-1.5,0.7-3,1.5-4.4c0.6-1.1,1.4-1.9,2.6-2.3c2.2-0.7,3.8,0.7,3.4,3
	c-0.4,2.3-2.4,4.3-5,4.7C113.3,107.4,112.7,107.4,112.4,107.4z"/>
<path fill="#EEF7F2" d="M83.7,61.8c0.1-2.7,0.3-5.3,0.4-7.8c0.1-1.7,0.2-3.4,0.3-5.1c0-0.2-0.1-0.5,0.2-0.6c0.3-0.1,0.3,0.2,0.4,0.4
	c1.9,4.4,1.6,8.7-0.9,12.8C84.1,61.6,84,61.6,83.7,61.8z"/>
<path fill="#EEF7F2" d="M119.2,43.2c1,1.3,1.3,2.6,1.5,4c0.4,2.9,0,5.7-1.4,8.2c-0.2,0.3-0.2,0.8-0.6,0.7c-0.4-0.1-0.1-0.6-0.1-0.9
	c0.1-3.2,0.3-6.5,0.4-9.7C119.1,44.9,119.1,44,119.2,43.2z"/>
<path fill="#F6FBF7" d="M185.5,68.2c1.6-0.1,1.6,0,1,1.2c-0.9,1.8-2.2,3.4-3.9,4.5c-0.5,0.3-1,0.5-1.5,0.5c-0.9,0-1.5-0.5-1.6-1.3
	c-0.3-2,0.7-3.5,2.6-4.1C183.3,68.5,184.5,68.3,185.5,68.2z"/>
<path fill="#F6FBF7" d="M161.9,75.4c-0.5,0-0.9,0-0.8-0.7c0.3-1.5,0.7-3.1,1.7-4.4c0.1-0.2,0.3-0.4,0.5-0.5c0.9-0.8,2.4-1.1,3.2-0.5
	c0.9,0.6,1.1,1.8,0.5,3.1C166,74.5,164.1,75.2,161.9,75.4z"/>
<path fill="#F5F8F6" d="M46.7,98.5c0.3,0,0.4,0,0.6,0c0.6,0,0.7,0.2,0.5,0.7c-1.2,2.7-2.8,4.9-5.3,6.5c-0.9,0.6-2,1.1-3,0.4
	c-1-0.6-0.9-1.7-0.8-2.8c0.1-2,1.2-3.2,3-3.8C43.2,98.9,45,98.6,46.7,98.5z"/>
<path fill="#1D1C1C" d="M229.1,121.5c-0.4-0.6-0.5-1.1-0.6-1.8C229,120.3,229.3,120.8,229.1,121.5z"/>
</svg>
